# xmcd CD database file
#
# Track frame offsets:
#	150
#	15422
#	33405
#	49460
#	67112
#	87127
#	101117
#	115670
#	129702
#	148500
#	167280
#	181927
#	201052
#	215682
#
# Disc length: 3120 seconds
#
# Revision: 3
# Processed by: cddbd v1.5.2PL0 Copyright (c) Steve Scherf et al.
# Submitted via: CDex 1.51
#
DISCID=c30c2e0e
DTITLE=Dave Myers - You Can't Do That
DYEAR=1998
DGENRE=Blues
TTITLE0=Please Don't Leave Me
TTITLE1=Dave's Boogie Guitar
TTITLE2=You Can't Do That
TTITLE3=Elevate Me, Mama
TTITLE4=Reconsider Baby
TTITLE5=Ting-A-Ling
TTITLE6=Oh Baby
TTITLE7=Legs Up
TTITLE8=Going Home Tomorrow
TTITLE9=Chattanooga Shoe Shine
TTITLE10=You Can't Love Me That Way
TTITLE11=Love By The Pound
TTITLE12=Stone Cold Fox
TTITLE13=Blues In Mexico
EXTD=YEAR: 1998
EXTT0=
EXTT1=
EXTT2=
EXTT3=
EXTT4=
EXTT5=
EXTT6=
EXTT7=
EXTT8=
EXTT9=
EXTT10=
EXTT11=
EXTT12=
EXTT13=
PLAYORDER=
